<svg width="20" height="20" viewBox="0 0 20 20" fill="none" xmlns="http://www.w3.org/2000/svg">
<path d="M14.9993 1.66675L18.3327 5.00008M1.66602 18.3334L2.72968 14.4333C2.79908 14.1789 2.83378 14.0516 2.88704 13.933C2.93434 13.8276 2.99245 13.7275 3.06045 13.6342C3.13703 13.5291 3.23027 13.4358 3.41677 13.2493L12.0279 4.63815C12.193 4.47315 12.2755 4.39064 12.3706 4.35973C12.4543 4.33254 12.5444 4.33254 12.6281 4.35973C12.7232 4.39064 12.8057 4.47315 12.9708 4.63815L15.3613 7.02868C15.5263 7.19368 15.6088 7.27619 15.6397 7.37132C15.6669 7.45501 15.6669 7.54515 15.6397 7.62884C15.6088 7.72398 15.5263 7.80648 15.3613 7.97149L6.7501 16.5827C6.56361 16.7692 6.47036 16.8624 6.36525 16.939C6.27192 17.007 6.17178 17.0651 6.06645 17.1124C5.9478 17.1657 5.82058 17.2004 5.56613 17.2697L1.66602 18.3334Z" stroke="#0A0D12" stroke-width="1.10833" stroke-linecap="round" stroke-linejoin="round"/>
</svg>
